<svg xmlns="http://www.w3.org/2000/svg" xmlns:xlink="http://www.w3.org/1999/xlink" width="1080" zoomAndPan="magnify" viewBox="0 0 810 1012.49997" height="1350" preserveAspectRatio="xMidYMid meet" version="1.0"><defs><clipPath id="d51a54fa28"><path d="M 411 355 L 681.902344 355 L 681.902344 862 L 411 862 Z M 411 355 " clip-rule="nonzero"/></clipPath><clipPath id="114bdab52c"><path d="M 127.925781 150 L 571 150 L 571 862 L 127.925781 862 Z M 127.925781 150 " clip-rule="nonzero"/></clipPath></defs><g clip-path="url(#d51a54fa28)"><path fill="#f7f7f7" d="M 560.988281 786.613281 C 575.183594 810.554688 589.417969 834.484375 603.507812 858.457031 C 604.808594 860.671875 606.058594 861.851562 609.535156 861.839844 C 633.484375 861.660156 657.492188 861.71875 682.042969 861.71875 C 682.226562 850.542969 681.5625 840.050781 673.914062 830.71875 C 667.164062 822.480469 658.679688 817.75 646.273438 819.9375 C 640.960938 820.878906 636.277344 824 631.347656 826.199219 C 629.476562 827.035156 627.761719 828.0625 624.984375 829.523438 C 593.679688 774.375 580.160156 718.785156 606.347656 660.363281 C 587.234375 682.558594 565.375 701.8125 530.144531 708.507812 C 534.949219 705.542969 539.847656 702.675781 544.53125 699.605469 C 556.71875 691.605469 565.144531 681.410156 572.527344 670.59375 C 575.511719 666.21875 576.34375 660.722656 582.339844 657.832031 C 590.933594 653.683594 597.402344 647.933594 603.304688 641.765625 C 620.609375 623.679688 627.375 603.363281 625.027344 581 C 624.097656 572.152344 620.613281 564.367188 615.292969 557.304688 C 620.449219 559.097656 625.503906 563.667969 629.027344 567.496094 C 630.035156 568.589844 631.808594 567.5 631.316406 566.09375 L 620.742188 535.785156 C 622.222656 536.667969 623.699219 537.554688 625.1875 538.429688 C 626.007812 538.921875 626.898438 539.328125 628.816406 540.320312 C 624.769531 531.09375 618.914062 523.648438 611.589844 516.808594 C 611.726562 516.5 611.871094 516.179688 612.007812 515.867188 C 617.261719 516.441406 622.5 517.011719 627.75 517.589844 C 627.933594 517.398438 628.125 517.207031 628.308594 517.011719 C 626.28125 515.558594 624.429688 513.894531 622.1875 512.671875 C 614.371094 508.441406 606.320312 504.460938 598.550781 500.191406 C 580.8125 490.449219 569.640625 477.625 568.375 460.402344 C 567.925781 454.390625 570.722656 449.0625 574.988281 444.15625 C 578.667969 439.9375 580.8125 439.878906 586.128906 443.597656 C 590.269531 441.886719 594.546875 440.378906 598.488281 438.445312 C 603.847656 435.8125 609.582031 435.992188 614.710938 437.847656 C 621.25 440.210938 622.871094 445.113281 622.3125 450.417969 C 622.160156 451.914062 621.820312 453.394531 621.574219 454.878906 C 621.992188 455.019531 622.394531 455.164062 622.808594 455.304688 C 625.265625 451.316406 628.09375 447.429688 630.101562 443.316406 C 634.613281 434.089844 635.894531 424.597656 631.691406 415.074219 C 629.144531 409.289062 624.339844 404.914062 616.492188 403.015625 C 612.546875 402.074219 608.535156 401.328125 604.625 400.300781 C 603.589844 400.027344 602.660156 399.105469 602.089844 398.320312 C 596.171875 390.144531 587.671875 384.015625 577.507812 379.050781 C 564.003906 372.453125 549.730469 367.183594 534.523438 363.445312 C 524.019531 360.863281 513.433594 358.460938 502.863281 356.03125 C 501.785156 355.78125 500.578125 355.875 499.417969 355.816406 C 499.136719 356.09375 498.878906 356.355469 498.597656 356.628906 C 502.042969 359.464844 505.503906 362.308594 509.058594 365.222656 C 508.859375 365.269531 508.265625 365.460938 507.664062 365.511719 C 495.027344 366.464844 482.292969 366.980469 469.765625 368.484375 C 460.632812 369.585938 451.777344 372 442.695312 373.84375 C 451.207031 378.5625 459.382812 383.09375 468.15625 387.960938 C 453.914062 396.015625 439.390625 402.636719 426.382812 412.476562 C 437.984375 412.476562 448.257812 412.476562 458.792969 412.476562 C 443.097656 429.410156 427.753906 445.953125 411.652344 463.320312 C 422.609375 461.5625 432.234375 460.035156 442.679688 458.359375 C 428.019531 477.839844 417.695312 497.992188 411.964844 519.414062 C 419.457031 515.421875 426.984375 511.402344 435.402344 506.921875 C 431.292969 523.789062 425.757812 539.480469 417.863281 554.933594 C 425.5 553.785156 432.542969 552.089844 439.679688 551.789062 C 455.363281 551.132812 469.40625 554.859375 482.203125 562.164062 C 501.453125 573.148438 512.050781 588.351562 518.695312 605.46875 C 526.652344 626.003906 527.160156 646.585938 517.121094 666.925781 C 513.503906 674.253906 508.976562 681.421875 506.675781 688.992188 C 504.140625 697.289062 502.921875 705.9375 502.519531 714.484375 C 501.871094 728.382812 502.351562 742.320312 502.351562 756.234375 C 502.785156 756.296875 503.21875 756.363281 503.632812 756.425781 C 507.339844 750.59375 511.0625 744.773438 514.820312 738.882812 C 516.890625 751.046875 518.898438 762.929688 520.921875 774.824219 C 521.28125 774.777344 521.632812 774.726562 521.988281 774.664062 C 526.222656 766.023438 530.441406 757.371094 534.671875 748.726562 C 535.199219 748.773438 535.707031 748.824219 536.234375 748.871094 C 538.089844 768.746094 542.429688 788.203125 551.898438 807.246094 C 554.527344 800.183594 557 793.511719 559.488281 786.84375 C 559.980469 786.757812 560.476562 786.6875 560.988281 786.605469 Z M 517.523438 527.074219 C 492.617188 500.792969 486.234375 472.367188 500.683594 441.484375 C 501.855469 438.960938 503.539062 436.585938 504.609375 434.027344 C 478.082031 453.28125 473.613281 478.683594 471.714844 504.84375 C 469.691406 493.3125 468.792969 481.761719 470.449219 470.183594 C 472.398438 456.535156 477.804688 443.804688 488.355469 432.617188 C 495.109375 425.445312 503.464844 419.597656 513.621094 415.359375 C 516.445312 414.171875 519.183594 412.875 522.335938 411.453125 C 516.230469 409.804688 509.710938 408.953125 504.597656 406.394531 C 499.328125 403.765625 494.941406 399.773438 491.09375 395.828125 C 487.21875 391.847656 484.496094 387.195312 481.113281 382.617188 C 492.441406 378.566406 503.714844 378.019531 514.378906 379.761719 C 529.085938 382.1875 543.796875 381.519531 558.507812 382.234375 C 574.390625 383.023438 585.316406 391.175781 587.828125 402.351562 C 582.144531 400.847656 576.117188 398.792969 569.8125 397.703125 C 563.355469 396.578125 556.636719 396.410156 548.878906 395.714844 C 555.445312 400.453125 561.347656 404.703125 568.039062 409.523438 C 565.96875 409.523438 565.117188 409.546875 564.269531 409.523438 C 547.328125 409.042969 536.628906 413.441406 529.71875 422.335938 C 523.042969 426.933594 517.445312 433.175781 513.472656 440.253906 C 505.589844 454.285156 504.183594 470.230469 507.101562 485.871094 C 511.585938 509.921875 525.789062 529.558594 538.863281 549.71875 C 531.90625 542.09375 524.667969 534.609375 517.53125 527.078125 Z M 517.523438 527.074219 " fill-opacity="1" fill-rule="nonzero"/></g><path fill="#f7f7f7" d="M 505.996094 402.839844 C 499.9375 400.175781 492.988281 391.664062 494.054688 387.253906 C 507.292969 390.613281 520.429688 393.949219 533.949219 397.375 C 524.894531 403.652344 512.839844 405.871094 505.996094 402.839844 Z M 505.996094 402.839844 " fill-opacity="1" fill-rule="nonzero"/><g clip-path="url(#114bdab52c)"><path fill="#f7f7f7" d="M 130.519531 735.984375 C 130.292969 736.101562 130.132812 736.328125 129.363281 737.058594 C 132.699219 737.550781 135.621094 737.992188 138.558594 738.398438 C 144.859375 739.285156 151.195312 739.652344 157.5 738.496094 C 173.132812 735.601562 182.664062 727.988281 186.378906 715.9375 C 187.167969 713.359375 187.628906 710.703125 188.632812 708.167969 C 191.441406 701.070312 202.722656 698.640625 210.417969 703.152344 C 225.09375 711.757812 224.1875 725.550781 219.566406 734.8125 C 214.945312 744.089844 206.988281 751.628906 198.632812 758.980469 C 189.054688 767.394531 179.039062 775.546875 172.75 785.894531 C 162.953125 802.019531 160.40625 818.523438 168.808594 835.414062 C 173.675781 845.191406 182.046875 852.972656 194.039062 858.039062 C 201.191406 861.066406 209.132812 861.972656 217.324219 861.972656 C 285.519531 861.925781 353.71875 861.9375 421.917969 861.925781 C 422.65625 861.925781 423.386719 861.808594 424.667969 861.703125 C 425.359375 843.523438 422.039062 827.21875 394.894531 820.324219 C 417.128906 814.011719 428.160156 799.238281 427.261719 780.582031 C 427.09375 777.128906 426.058594 773.722656 428.53125 770.097656 C 429.550781 768.59375 426.597656 765.339844 425.144531 763 C 424.203125 761.457031 422.703125 760.128906 421.144531 758.335938 C 416.261719 760.941406 411.253906 763.4375 406.511719 766.199219 C 400.40625 769.738281 394.398438 773.398438 388.605469 777.230469 C 387.261719 778.128906 386.242188 780.027344 386.351562 781.402344 C 387.09375 790.175781 386.984375 798.851562 382.675781 807.160156 C 378.550781 815.085938 371.226562 820.941406 361.910156 825.316406 C 354.277344 828.898438 345.886719 830.824219 337.1875 832.511719 C 320.59375 835.714844 303.738281 836.875 286.800781 837.839844 C 286.398438 837.863281 285.996094 837.746094 284.359375 837.53125 C 293.074219 834.109375 300.769531 830.921875 308.679688 828.054688 C 320.25 823.859375 332.226562 820.285156 343.566406 815.742188 C 355.664062 810.886719 366.09375 804.316406 368.007812 792.914062 C 369.894531 781.59375 365.335938 771.96875 353.316406 764.886719 C 340.710938 757.4375 326.140625 757.726562 311.429688 758.648438 C 309.375 758.777344 307.320312 758.96875 305.125 758.65625 C 318.164062 751.855469 332.117188 748.035156 348.25 749.671875 C 365.398438 751.414062 374.761719 760.570312 383.351562 770.945312 C 388.898438 767.632812 394.304688 764.371094 399.777344 761.15625 C 406.078125 757.453125 412.304688 753.6875 418.8125 750.210938 C 420.773438 749.160156 421.148438 748.308594 420.914062 746.578125 C 419.984375 739.667969 418.71875 732.722656 418.765625 725.804688 C 418.875 710.480469 425.488281 696.566406 436.070312 683.765625 C 440.117188 678.867188 444.535156 674.15625 449.773438 669.6875 C 448.398438 673.34375 447.023438 677.011719 445.632812 680.671875 C 439.792969 696.089844 437.875 711.566406 444.242188 727.214844 C 448.183594 736.894531 454.484375 745.5625 462.519531 753.53125 C 463.414062 754.417969 464.09375 755.421875 464.589844 756.558594 C 447.019531 749.3125 434.660156 738.316406 425.902344 723.578125 C 426.457031 748.535156 439.421875 769.046875 456.738281 789.054688 C 453.199219 788.757812 450.777344 788.554688 447.53125 788.289062 C 453.292969 795.769531 458.824219 802.785156 464.125 809.910156 C 467.601562 814.582031 471.234375 819.160156 471.554688 824.921875 C 471.707031 827.667969 473.777344 830.382812 475.203125 833.046875 C 480.222656 842.40625 485.355469 851.742188 490.789062 861.734375 L 570.316406 861.734375 C 570.886719 848.613281 569.742188 836.097656 557.289062 826.34375 C 552.328125 822.445312 545.515625 819.359375 538.191406 820.703125 C 532.429688 821.753906 526.789062 824.289062 521.953125 827.058594 C 516.316406 830.300781 511.945312 829.964844 509.765625 824.886719 C 501.316406 805.140625 495.796875 784.902344 492.785156 764.253906 C 489.449219 741.386719 490.019531 718.554688 493.683594 695.75 C 493.789062 695.070312 493.695312 694.375 493.695312 693.207031 C 486.851562 695.464844 480.363281 697.613281 473.179688 699.996094 C 477.90625 695.597656 482.203125 691.714844 486.328125 687.746094 C 496.140625 678.3125 502.183594 667.472656 505.488281 655.726562 C 510.398438 638.300781 509.316406 621.144531 500.699219 604.476562 C 493.976562 591.496094 483.503906 580.652344 467.941406 573.410156 C 457.546875 568.566406 446.019531 565.558594 433.550781 566.585938 C 430.324219 566.851562 427.230469 566.824219 424.242188 566.558594 C 424.460938 567.003906 424.660156 567.457031 424.871094 567.90625 C 424.054688 567.492188 423.214844 567.105469 422.34375 566.78125 C 413.441406 563.441406 408.234375 555.4375 404.117188 545.5625 C 399.429688 534.316406 396.152344 522.476562 394.378906 510.0625 C 392.199219 494.84375 392.21875 479.535156 394.152344 464.335938 C 396.132812 448.792969 401.011719 434.441406 405.101562 420.296875 C 408.71875 407.824219 411 395.519531 409.046875 382.957031 C 407.898438 375.605469 405.421875 368.988281 401.316406 363.046875 C 396.832031 356.550781 391.398438 351.199219 385.394531 346.285156 C 368.734375 332.6875 349.558594 322.351562 331.558594 309.5625 C 325.917969 305.554688 320.085938 301.75 314.429688 297.648438 C 300.691406 287.695312 286.785156 277.621094 272.90625 267.238281 C 266.707031 262.601562 260.679688 257.679688 254.945312 252.507812 C 247.488281 245.789062 239.917969 239.019531 233.261719 231.65625 C 225.273438 222.808594 217.8125 213.554688 210.941406 204.078125 C 206.304688 197.675781 202.628906 190.761719 199.386719 183.882812 C 194.71875 173.96875 191.304688 163.851562 189.519531 153.636719 C 189.320312 152.53125 188.6875 151.441406 187.300781 150.039062 C 185.820312 152.214844 184.152344 154.347656 182.863281 156.636719 C 175.003906 170.550781 170.679688 185.703125 171.628906 202.019531 C 172.195312 211.851562 174.773438 221.574219 180.175781 230.859375 C 184.445312 238.195312 189.234375 245.125 195.289062 251.644531 C 202.769531 259.71875 210.886719 267.074219 220.121094 273.554688 C 265.984375 305.71875 313.019531 332.59375 356.660156 360.289062 C 362.238281 363.832031 367.777344 367.570312 372.632812 371.992188 C 380.84375 379.472656 385.316406 389.242188 385.867188 401.332031 L 381.078125 440.171875 C 377.203125 459.558594 375.933594 479.46875 377.195312 499.765625 C 378.128906 514.800781 380.648438 529.535156 385.457031 543.53125 C 390.050781 556.875 395.53125 569.574219 402.023438 581.609375 C 405.113281 587.328125 407.710938 593.550781 410.554688 599.554688 C 410.351562 599.84375 410.144531 600.140625 409.941406 600.429688 C 404.4375 594.675781 398.40625 589.542969 393.527344 582.996094 C 386.542969 573.617188 380.792969 563.042969 376.207031 551.308594 C 366.09375 525.429688 363.332031 497.839844 365.957031 469.714844 C 367.238281 455.953125 370.085938 442.5 372.152344 429.324219 C 373.761719 419.015625 374.539062 408.953125 370.847656 399.566406 C 369.753906 396.792969 368.359375 394.085938 366.652344 391.738281 C 360.6875 383.488281 352.097656 378.808594 343.484375 373.996094 C 336.011719 369.816406 328.789062 365.074219 321.222656 360.808594 C 305.726562 352.089844 289.867188 343.425781 273.792969 334.550781 C 269.316406 332.082031 264.765625 329.675781 260.273438 327.152344 C 246.492188 319.394531 232.136719 311.988281 218.539062 303.347656 C 207.0625 296.058594 196.347656 287.667969 185.8125 279.101562 C 179.214844 273.722656 173.40625 267.542969 167.988281 261.25 C 162.457031 254.804688 157.777344 247.863281 152.953125 241.027344 C 151.015625 238.285156 149.671875 235.285156 147.085938 232.394531 C 146.097656 236.058594 145.042969 239.730469 144.128906 243.441406 C 141.523438 253.980469 140.488281 264.777344 141.847656 275.546875 C 142.75 282.640625 144.945312 289.683594 147.570312 296.488281 C 152.078125 308.195312 160.320312 317.886719 169.828125 327.046875 C 179.167969 336.042969 190.828125 341.972656 202.347656 347.921875 C 209.363281 351.554688 216.945312 354.449219 224.550781 356.855469 C 234.5 359.996094 244.691406 362.300781 254.558594 364.980469 C 260.066406 366.472656 265.453125 368.148438 270.878906 369.601562 C 282.148438 372.601562 292.734375 376.621094 302.742188 381.632812 C 305.171875 382.855469 305.664062 383.941406 304.445312 386.71875 C 301.101562 394.339844 298.113281 402.21875 294.792969 410.484375 C 286.699219 407.386719 278.707031 404.203125 270.539062 401.238281 C 261.601562 397.992188 252.425781 395.003906 243.257812 391.734375 C 239.367188 390.347656 235.582031 388.671875 231.753906 387.074219 C 221.28125 382.710938 210.976562 377.78125 199.933594 373.894531 C 183.3125 368.042969 168.933594 358.984375 154.933594 349.269531 C 146.871094 343.675781 140.496094 336.382812 133.300781 329.820312 C 132.558594 329.140625 131.703125 328.546875 129.863281 327.078125 C 129.101562 334.441406 127.597656 340.976562 127.980469 347.261719 C 128.539062 356.386719 129.941406 365.507812 132.0625 374.425781 C 133.277344 379.515625 136.082031 384.253906 139.046875 388.652344 C 149.039062 403.511719 163.078125 414.671875 181.203125 420.777344 C 191.800781 424.34375 202.339844 428.125 214.285156 428.136719 C 221.492188 428.144531 228.40625 429.261719 235.382812 429.695312 C 245.476562 430.320312 255.460938 430.78125 265.277344 431.300781 C 265.40625 431.308594 265.539062 431.316406 265.660156 431.355469 C 273.4375 433.835938 281.125 436.285156 288.367188 438.59375 C 286.53125 449.335938 284.84375 459.136719 283.054688 469.597656 C 278.503906 468.328125 274.25 466.910156 269.816406 465.972656 C 258.921875 463.667969 247.773438 461.601562 236.503906 459.324219 C 230.855469 458.191406 225.179688 456.96875 219.480469 455.714844 C 208.894531 453.378906 198.203125 450.917969 187.308594 448.5625 C 171.53125 445.144531 157.675781 438.285156 144.121094 430.625 C 143.449219 430.246094 142.648438 430.023438 140.554688 429.179688 C 141.511719 439.410156 142.3125 448.644531 143.265625 457.902344 C 144.203125 466.957031 148.589844 474.308594 153.816406 480.945312 C 156.683594 484.582031 161.085938 487.121094 165.296875 489.492188 C 177.816406 496.507812 192.148438 499.152344 207.808594 497.105469 C 218.691406 495.679688 229.496094 493.128906 239.996094 491.675781 C 248.191406 490.554688 256.257812 490.035156 264.148438 489.734375 C 270.109375 489.511719 275.894531 490.042969 281.722656 490.222656 C 282.03125 496.027344 282.34375 501.652344 282.652344 507.441406 C 269.023438 505.070312 255.4375 503.949219 240.597656 506.796875 C 227.097656 509.378906 213.28125 511.824219 199.195312 513.808594 C 189.160156 515.214844 179.09375 515.605469 168.800781 516.503906 C 167 516.660156 165.160156 517.039062 162.28125 517.488281 C 164.605469 523.699219 166.386719 529.550781 168.914062 534.957031 C 173.824219 545.476562 182.515625 552.222656 194.605469 553.023438 C 203.386719 553.597656 213 551.992188 222.09375 549.617188 C 236.585938 545.824219 250.679688 540.5 264.457031 536.511719 C 269.828125 534.960938 275.203125 534.832031 280.519531 534.054688 L 284.425781 533.476562 C 285.734375 538.707031 287.097656 544.167969 288.753906 550.738281 C 257.953125 548.183594 225.769531 563.390625 190.3125 576.351562 C 194.550781 581.035156 198.457031 585.410156 202.457031 589.707031 C 204.113281 591.488281 205.6875 593.460938 207.769531 594.644531 C 216.484375 599.628906 226.742188 599.554688 237.675781 597.710938 C 254.152344 594.925781 269.625 586.523438 284.847656 580.289062 C 288.839844 578.652344 292.851562 577.429688 296.804688 576.050781 C 299.035156 581.199219 301.273438 586.332031 303.949219 592.476562 C 278.257812 591.566406 253.179688 607.441406 226.554688 618.3125 C 226.472656 618.570312 226.210938 619.101562 226.292969 619.1875 C 231.585938 623.5 236.167969 629.128906 242.34375 631.707031 C 251.101562 635.367188 261.285156 634.207031 271.867188 630.078125 C 286.058594 624.542969 299.078125 615.769531 311.9375 608.066406 C 316.058594 605.59375 316.785156 610.121094 318.792969 611.785156 C 319.925781 612.730469 320.308594 614.796875 320.898438 616.070312 C 312.988281 620.441406 304.601562 624.699219 296.242188 629.785156 C 287.550781 635.054688 278.871094 641.15625 268.867188 647.777344 C 274.1875 649.136719 278.816406 651.421875 283.953125 651.351562 C 291.25 651.257812 298.808594 650.535156 306.296875 645.65625 C 314.714844 640.171875 322.945312 634.691406 331.039062 629.378906 C 331.949219 628.78125 333.296875 627.667969 333.78125 627.984375 C 337.644531 630.421875 341.335938 633.132812 345.410156 635.992188 C 334.203125 643.253906 323.253906 650.320312 312.167969 657.539062 C 322.851562 657.816406 333.058594 659.164062 343.183594 660.214844 C 346.539062 660.566406 349.945312 660.925781 353.402344 661.21875 C 350.386719 663.910156 347.390625 666.59375 344.410156 669.28125 C 335.558594 677.25 326.441406 685.082031 318.144531 693.414062 C 306.605469 705.019531 295.09375 716.695312 284.695312 728.914062 C 268.78125 747.597656 256.128906 767.542969 250.210938 789.703125 C 245.5625 807.128906 244.449219 824.652344 247.648438 842.773438 C 237.804688 842.773438 228.152344 843.835938 219.046875 842.558594 C 199.875 839.84375 186.324219 830.953125 186.664062 812.339844 C 186.820312 803.769531 191.933594 796.285156 198.625 789.628906 C 208.960938 779.328125 220.257812 769.5625 229.925781 758.910156 C 247.355469 739.691406 250.304688 718.957031 236.953125 697.546875 C 231.902344 689.457031 223.929688 683.429688 212.542969 680.070312 C 204.136719 677.597656 195.777344 677.164062 187.574219 679.042969 C 173.46875 682.257812 165.09375 690.230469 160.335938 700.769531 C 157.632812 706.757812 154.617188 712.664062 151.589844 718.558594 C 147.773438 725.992188 140.960938 731.394531 132.058594 735.300781 C 131.535156 735.527344 131.007812 735.742188 130.511719 736.015625 Z M 375.492188 615.488281 C 362.5 610.070312 350.625 602.09375 340.34375 591.375 C 333.605469 584.367188 327.527344 576.453125 323.25 566.789062 C 319.964844 559.386719 315.925781 552.503906 313.320312 544.738281 C 308.101562 529.222656 304.980469 512.835938 303.691406 496.117188 C 301.867188 472.425781 303.535156 449.039062 308.820312 426.308594 C 312.269531 411.507812 316.945312 397.441406 324.375 384.414062 L 334.640625 390.617188 C 334.558594 390.96875 334.519531 391.300781 334.386719 391.605469 C 328.898438 404.824219 324.34375 418.652344 321.832031 433.363281 C 319.179688 448.933594 318.386719 464.722656 319.757812 480.53125 C 321.074219 495.832031 323.214844 511.175781 328.21875 525.449219 C 332.253906 536.996094 336 548.941406 341.195312 559.824219 C 345.90625 569.664062 351.871094 578.640625 358.167969 587.046875 C 365.382812 596.660156 373.550781 605.128906 381.261719 614.105469 C 382.542969 615.585938 383.710938 617.222656 385.535156 619.589844 C 381.601562 617.992188 378.542969 616.761719 375.488281 615.492188 Z M 375.492188 615.488281 " fill-opacity="1" fill-rule="nonzero"/></g></svg>